<svg xmlns="http://www.w3.org/2000/svg" width="130.000000" height="130.000000">
<rect width="100%" height="100%" fill="white"/>
<rect x="10.000000" y="10.000000" width="38.000000" height="58.000000" fill="none" stroke="black" stroke-width="0.050000" />
<text x="29.000000" y="39.000000" text-anchor="middle" font-size="10" dominant-baseline="middle">T</text>
<rect x="23.000000" y="14.000000" width="4.000000" height="1.000000" fill="none" stroke="black" stroke-width="0.050000" />
<rect x="31.000000" y="14.000000" width="4.000000" height="1.000000" fill="none" stroke="black" stroke-width="0.050000" />
<rect x="23.000000" y="63.000000" width="4.000000" height="1.000000" fill="none" stroke="black" stroke-width="0.050000" />
<rect x="31.000000" y="63.000000" width="4.000000" height="1.000000" fill="none" stroke="black" stroke-width="0.050000" />
<rect x="14.000000" y="23.000000" width="1.000000" height="4.000000" fill="none" stroke="black" stroke-width="0.050000" />
<rect x="14.000000" y="31.000000" width="1.000000" height="4.000000" fill="none" stroke="black" stroke-width="0.050000" />
<rect x="14.000000" y="39.000000" width="1.000000" height="4.000000" fill="none" stroke="black" stroke-width="0.050000" />
<rect x="14.000000" y="47.000000" width="1.000000" height="4.000000" fill="none" stroke="black" stroke-width="0.050000" />
<rect x="14.000000" y="55.000000" width="1.000000" height="4.000000" fill="none" stroke="black" stroke-width="0.050000" />
<rect x="43.000000" y="23.000000" width="1.000000" height="4.000000" fill="none" stroke="black" stroke-width="0.050000" />
<rect x="43.000000" y="31.000000" width="1.000000" height="4.000000" fill="none" stroke="black" stroke-width="0.050000" />
<rect x="43.000000" y="39.000000" width="1.000000" height="4.000000" fill="none" stroke="black" stroke-width="0.050000" />
<rect x="43.000000" y="47.000000" width="1.000000" height="4.000000" fill="none" stroke="black" stroke-width="0.050000" />
<rect x="43.000000" y="55.000000" width="1.000000" height="4.000000" fill="none" stroke="black" stroke-width="0.050000" />
<rect x="58.000000" y="10.000000" width="30.000000" height="50.000000" fill="none" stroke="black" stroke-width="0.1"/>
<text x="73.000000" y="35.000000" text-anchor="middle" dominant-baseline="middle">T</text>
<rect x="98.000000" y="10.000000" width="30.000000" height="50.000000" fill="none" stroke="black" stroke-width="0.1"/>
<text x="113.000000" y="35.000000" text-anchor="middle" dominant-baseline="middle">T</text>
<rect x="10.000000" y="70.000000" width="30.000000" height="50.000000" fill="none" stroke="black" stroke-width="0.1"/>
<text x="25.000000" y="95.000000" text-anchor="middle" dominant-baseline="middle">T</text>
<rect x="50.000000" y="70.000000" width="30.000000" height="50.000000" fill="none" stroke="black" stroke-width="0.1"/>
<text x="65.000000" y="95.000000" text-anchor="middle" dominant-baseline="middle">T</text>
<rect x="90.0" y="70.0" width="30.0" height="50.0" fill="none" stroke="black" stroke-width="0.1"/>
<text x="105.0" y="95.0" text-anchor="middle" dominant-baseline="middle">T</text>
</svg>
